<svg xmlns="http://www.w3.org/2000/svg" width="1400" height="900" viewBox="0 0 1400 900">
<rect width="100%" height="100%" fill="#fbfaf7"/>
<style>text{font-family:'Microsoft YaHei','Segoe UI',Arial,sans-serif;fill:#25211e}.title{font-size:34px;font-weight:700}.sub{font-size:18px;fill:#6d645c}.label{font-size:18px;font-weight:650}.small{font-size:15px;fill:#6d645c}.tick{font-size:14px;fill:#6d645c}.rank{font-size:16px;font-weight:700;fill:#c84632}.mono{font-family:Consolas,'Microsoft YaHei',monospace;font-size:16px;fill:#3a332e}</style>
<text x="92" y="50" class="title" text-anchor="start" >Taiko Rating &#20998;&#25968;&#34917;&#27491;&#26354;&#32447;</text>
<text x="92" y="82" class="sub" text-anchor="start" >&#21333;&#26354; TR = &#35889;&#38754;&#23450;&#25968; + G(&#23448;&#26041;&#20998;&#25968;)</text>
<text x="92" y="108" class="small" text-anchor="start" >&#36825;&#26159;&#19968;&#26465;&#31867;&#20284; CHUNITHM &#30340;&#36830;&#32493;&#20998;&#27573;&#30452;&#32447;&#65306;95&#19975;&#20316;&#20026;&#23450;&#25968;&#22522;&#20934;&#65292;100&#19975;&#20197;&#19978;&#23553;&#39030;&#12290;</text>
<line x1="92.00" y1="573.52" x2="942.00" y2="573.52" stroke="#ded7cc" stroke-width="1" />
<text x="78" y="578.5208333333334" class="tick" text-anchor="end" >-3</text>
<line x1="92.00" y1="475.60" x2="942.00" y2="475.60" stroke="#ded7cc" stroke-width="1" />
<text x="78" y="480.60416666666663" class="tick" text-anchor="end" >-2</text>
<line x1="92.00" y1="377.69" x2="942.00" y2="377.69" stroke="#ded7cc" stroke-width="1" />
<text x="78" y="382.6875" class="tick" text-anchor="end" >-1</text>
<line x1="92.00" y1="279.77" x2="942.00" y2="279.77" stroke="#ded7cc" stroke-width="1" />
<text x="78" y="284.7708333333333" class="tick" text-anchor="end" >+0</text>
<line x1="92.00" y1="230.81" x2="942.00" y2="230.81" stroke="#ded7cc" stroke-width="1" />
<text x="78" y="235.8125" class="tick" text-anchor="end" >+0.5</text>
<line x1="92.00" y1="181.85" x2="942.00" y2="181.85" stroke="#ded7cc" stroke-width="1" />
<text x="78" y="186.85416666666663" class="tick" text-anchor="end" >+1</text>
<line x1="92.00" y1="142.69" x2="942.00" y2="142.69" stroke="#ded7cc" stroke-width="1" />
<text x="78" y="147.68749999999994" class="tick" text-anchor="end" >+1.4</text>
<line x1="92.00" y1="128.00" x2="92.00" y2="598.00" stroke="#c7b9a8" stroke-width="1" />
<text x="92.0" y="626" class="tick" text-anchor="middle" >70w</text>
<line x1="375.33" y1="128.00" x2="375.33" y2="598.00" stroke="#c7b9a8" stroke-width="1" />
<text x="375.3333333333333" y="626" class="tick" text-anchor="middle" >80w</text>
<line x1="658.67" y1="128.00" x2="658.67" y2="598.00" stroke="#c7b9a8" stroke-width="1" />
<text x="658.6666666666666" y="626" class="tick" text-anchor="middle" >90w</text>
<line x1="800.33" y1="128.00" x2="800.33" y2="598.00" stroke="#c7b9a8" stroke-width="1" />
<text x="800.3333333333334" y="626" class="tick" text-anchor="middle" >95w</text>
<line x1="857.00" y1="128.00" x2="857.00" y2="598.00" stroke="#c7b9a8" stroke-width="1" />
<text x="857.0" y="626" class="tick" text-anchor="middle" >97w</text>
<line x1="885.33" y1="128.00" x2="885.33" y2="598.00" stroke="#c7b9a8" stroke-width="1" />
<text x="885.3333333333334" y="626" class="tick" text-anchor="middle" >98w</text>
<line x1="913.67" y1="128.00" x2="913.67" y2="598.00" stroke="#c7b9a8" stroke-width="1" />
<text x="913.6666666666666" y="626" class="tick" text-anchor="middle" >99w</text>
<line x1="927.83" y1="128.00" x2="927.83" y2="598.00" stroke="#c7b9a8" stroke-width="1" />
<text x="927.8333333333333" y="626" class="tick" text-anchor="middle" >99w</text>
<line x1="942.00" y1="128.00" x2="942.00" y2="598.00" stroke="#c7b9a8" stroke-width="1" />
<text x="942.0" y="626" class="tick" text-anchor="middle" >100w</text>
<line x1="92.00" y1="598.00" x2="942.00" y2="598.00" stroke="#302b27" stroke-width="2" />
<line x1="92.00" y1="128.00" x2="92.00" y2="598.00" stroke="#302b27" stroke-width="2" />
<rect x="800.33" y="128.00" width="141.67" height="470.00" fill="#f0f6f8" opacity="0.8"/>
<polyline points="92.00,573.52 93.42,573.03 94.83,572.54 96.25,572.05 97.67,571.56 99.08,571.07 100.50,570.58 101.92,570.09 103.33,569.60 104.75,569.11 106.17,568.62 107.58,568.14 109.00,567.65 110.42,567.16 111.83,566.67 113.25,566.18 114.67,565.69 116.08,565.20 117.50,564.71 118.92,564.22 120.33,563.73 121.75,563.24 123.17,562.75 124.58,562.26 126.00,561.77 127.42,561.28 128.83,560.79 130.25,560.30 131.67,559.81 133.08,559.32 134.50,558.83 135.92,558.34 137.33,557.85 138.75,557.36 140.17,556.88 141.58,556.39 143.00,555.90 144.42,555.41 145.83,554.92 147.25,554.43 148.67,553.94 150.08,553.45 151.50,552.96 152.92,552.47 154.33,551.98 155.75,551.49 157.17,551.00 158.58,550.51 160.00,550.02 161.42,549.53 162.83,549.04 164.25,548.55 165.67,548.06 167.08,547.57 168.50,547.08 169.92,546.59 171.33,546.10 172.75,545.61 174.17,545.12 175.58,544.64 177.00,544.15 178.42,543.66 179.83,543.17 181.25,542.68 182.67,542.19 184.08,541.70 185.50,541.21 186.92,540.72 188.33,540.23 189.75,539.74 191.17,539.25 192.58,538.76 194.00,538.27 195.42,537.78 196.83,537.29 198.25,536.80 199.67,536.31 201.08,535.82 202.50,535.33 203.92,534.84 205.33,534.35 206.75,533.86 208.17,533.38 209.58,532.89 211.00,532.40 212.42,531.91 213.83,531.42 215.25,530.93 216.67,530.44 218.08,529.95 219.50,529.46 220.92,528.97 222.33,528.48 223.75,527.99 225.17,527.50 226.58,527.01 228.00,526.52 229.42,526.03 230.83,525.54 232.25,525.05 233.67,524.56 235.08,524.07 236.50,523.58 237.92,523.09 239.33,522.60 240.75,522.11 242.17,521.62 243.58,521.14 245.00,520.65 246.42,520.16 247.83,519.67 249.25,519.18 250.67,518.69 252.08,518.20 253.50,517.71 254.92,517.22 256.33,516.73 257.75,516.24 259.17,515.75 260.58,515.26 262.00,514.77 263.42,514.28 264.83,513.79 266.25,513.30 267.67,512.81 269.08,512.32 270.50,511.83 271.92,511.34 273.33,510.85 274.75,510.36 276.17,509.88 277.58,509.39 279.00,508.90 280.42,508.41 281.83,507.92 283.25,507.43 284.67,506.94 286.08,506.45 287.50,505.96 288.92,505.47 290.33,504.98 291.75,504.49 293.17,504.00 294.58,503.51 296.00,503.02 297.42,502.53 298.83,502.04 300.25,501.55 301.67,501.06 303.08,500.57 304.50,500.08 305.92,499.59 307.33,499.10 308.75,498.61 310.17,498.12 311.58,497.64 313.00,497.15 314.42,496.66 315.83,496.17 317.25,495.68 318.67,495.19 320.08,494.70 321.50,494.21 322.92,493.72 324.33,493.23 325.75,492.74 327.17,492.25 328.58,491.76 330.00,491.27 331.42,490.78 332.83,490.29 334.25,489.80 335.67,489.31 337.08,488.82 338.50,488.33 339.92,487.84 341.33,487.35 342.75,486.86 344.17,486.38 345.58,485.89 347.00,485.40 348.42,484.91 349.83,484.42 351.25,483.93 352.67,483.44 354.08,482.95 355.50,482.46 356.92,481.97 358.33,481.48 359.75,480.99 361.17,480.50 362.58,480.01 364.00,479.52 365.42,479.03 366.83,478.54 368.25,478.05 369.67,477.56 371.08,477.07 372.50,476.58 373.92,476.09 375.33,475.60 376.75,475.11 378.17,474.62 379.58,474.14 381.00,473.65 382.42,473.16 383.83,472.67 385.25,472.18 386.67,471.69 388.08,471.20 389.50,470.71 390.92,470.22 392.33,469.73 393.75,469.24 395.17,468.75 396.58,468.26 398.00,467.77 399.42,467.28 400.83,466.79 402.25,466.30 403.67,465.81 405.08,465.32 406.50,464.83 407.92,464.34 409.33,463.85 410.75,463.36 412.17,462.88 413.58,462.39 415.00,461.90 416.42,461.41 417.83,460.92 419.25,460.43 420.67,459.94 422.08,459.45 423.50,458.96 424.92,458.47 426.33,457.98 427.75,457.49 429.17,457.00 430.58,456.51 432.00,456.02 433.42,455.53 434.83,455.04 436.25,454.55 437.67,454.06 439.08,453.57 440.50,453.08 441.92,452.59 443.33,452.10 444.75,451.61 446.17,451.12 447.58,450.64 449.00,450.15 450.42,449.66 451.83,449.17 453.25,448.68 454.67,448.19 456.08,447.70 457.50,447.21 458.92,446.72 460.33,446.23 461.75,445.74 463.17,445.25 464.58,444.76 466.00,444.27 467.42,443.78 468.83,443.29 470.25,442.80 471.67,442.31 473.08,441.82 474.50,441.33 475.92,440.84 477.33,440.35 478.75,439.86 480.17,439.38 481.58,438.89 483.00,438.40 484.42,437.91 485.83,437.42 487.25,436.93 488.67,436.44 490.08,435.95 491.50,435.46 492.92,434.97 494.33,434.48 495.75,433.99 497.17,433.50 498.58,433.01 500.00,432.52 501.42,432.03 502.83,431.54 504.25,431.05 505.67,430.56 507.08,430.07 508.50,429.58 509.92,429.09 511.33,428.60 512.75,428.11 514.17,427.62 515.58,427.14 517.00,426.65 518.42,426.16 519.83,425.67 521.25,425.18 522.67,424.69 524.08,424.20 525.50,423.71 526.92,423.22 528.33,422.73 529.75,422.24 531.17,421.75 532.58,421.26 534.00,420.77 535.42,420.28 536.83,419.79 538.25,419.30 539.67,418.81 541.08,418.32 542.50,417.83 543.92,417.34 545.33,416.85 546.75,416.36 548.17,415.88 549.58,415.39 551.00,414.90 552.42,414.41 553.83,413.92 555.25,413.43 556.67,412.94 558.08,412.45 559.50,411.96 560.92,411.47 562.33,410.98 563.75,410.49 565.17,410.00 566.58,409.51 568.00,409.02 569.42,408.53 570.83,408.04 572.25,407.55 573.67,407.06 575.08,406.57 576.50,406.08 577.92,405.59 579.33,405.10 580.75,404.61 582.17,404.12 583.58,403.64 585.00,403.15 586.42,402.66 587.83,402.17 589.25,401.68 590.67,401.19 592.08,400.70 593.50,400.21 594.92,399.72 596.33,399.23 597.75,398.74 599.17,398.25 600.58,397.76 602.00,397.27 603.42,396.78 604.83,396.29 606.25,395.80 607.67,395.31 609.08,394.82 610.50,394.33 611.92,393.84 613.33,393.35 614.75,392.86 616.17,392.38 617.58,391.89 619.00,391.40 620.42,390.91 621.83,390.42 623.25,389.93 624.67,389.44 626.08,388.95 627.50,388.46 628.92,387.97 630.33,387.48 631.75,386.99 633.17,386.50 634.58,386.01 636.00,385.52 637.42,385.03 638.83,384.54 640.25,384.05 641.67,383.56 643.08,383.07 644.50,382.58 645.92,382.09 647.33,381.60 648.75,381.11 650.17,380.62 651.58,380.14 653.00,379.65 654.42,379.16 655.83,378.67 657.25,378.18 658.67,377.69 660.08,376.71 661.50,375.73 662.92,374.75 664.33,373.77 665.75,372.79 667.17,371.81 668.58,370.83 670.00,369.85 671.42,368.88 672.83,367.90 674.25,366.92 675.67,365.94 677.08,364.96 678.50,363.98 679.92,363.00 681.33,362.02 682.75,361.04 684.17,360.06 685.58,359.08 687.00,358.10 688.42,357.12 689.83,356.15 691.25,355.17 692.67,354.19 694.08,353.21 695.50,352.23 696.92,351.25 698.33,350.27 699.75,349.29 701.17,348.31 702.58,347.33 704.00,346.35 705.42,345.38 706.83,344.40 708.25,343.42 709.67,342.44 711.08,341.46 712.50,340.48 713.92,339.50 715.33,338.52 716.75,337.54 718.17,336.56 719.58,335.58 721.00,334.60 722.42,333.62 723.83,332.65 725.25,331.67 726.67,330.69 728.08,329.71 729.50,328.73 730.92,327.75 732.33,326.77 733.75,325.79 735.17,324.81 736.58,323.83 738.00,322.85 739.42,321.88 740.83,320.90 742.25,319.92 743.67,318.94 745.08,317.96 746.50,316.98 747.92,316.00 749.33,315.02 750.75,314.04 752.17,313.06 753.58,312.08 755.00,311.10 756.42,310.12 757.83,309.15 759.25,308.17 760.67,307.19 762.08,306.21 763.50,305.23 764.92,304.25 766.33,303.27 767.75,302.29 769.17,301.31 770.58,300.33 772.00,299.35 773.42,298.37 774.83,297.40 776.25,296.42 777.67,295.44 779.08,294.46 780.50,293.48 781.92,292.50 783.33,291.52 784.75,290.54 786.17,289.56 787.58,288.58 789.00,287.60 790.42,286.62 791.83,285.65 793.25,284.67 794.67,283.69 796.08,282.71 797.50,281.73 798.92,280.75 800.33,279.77 801.75,278.79 803.17,277.81 804.58,276.83 806.00,275.85 807.42,274.88 808.83,273.90 810.25,272.92 811.67,271.94 813.08,270.96 814.50,269.98 815.92,269.00 817.33,268.02 818.75,267.04 820.17,266.06 821.58,265.08 823.00,264.10 824.42,263.12 825.83,262.15 827.25,261.17 828.67,260.19 830.08,259.21 831.50,258.23 832.92,257.25 834.33,256.27 835.75,255.29 837.17,254.31 838.58,253.33 840.00,252.35 841.42,251.38 842.83,250.40 844.25,249.42 845.67,248.44 847.08,247.46 848.50,246.48 849.92,245.50 851.33,244.52 852.75,243.54 854.17,242.56 855.58,241.58 857.00,240.60 858.42,239.14 859.83,237.67 861.25,236.20 862.67,234.73 864.08,233.26 865.50,231.79 866.92,230.32 868.33,228.85 869.75,227.39 871.17,225.92 872.58,224.45 874.00,222.98 875.42,221.51 876.83,220.04 878.25,218.57 879.67,217.10 881.08,215.64 882.50,214.17 883.92,212.70 885.33,211.23 886.75,209.76 888.17,208.29 889.58,206.82 891.00,205.35 892.42,203.89 893.83,202.42 895.25,200.95 896.67,199.48 898.08,198.01 899.50,196.54 900.92,195.07 902.33,193.60 903.75,192.14 905.17,190.67 906.58,189.20 908.00,187.73 909.42,186.26 910.83,184.79 912.25,183.32 913.67,181.85 915.08,179.90 916.50,177.94 917.92,175.98 919.33,174.02 920.75,172.06 922.17,170.10 923.58,168.15 925.00,166.19 926.42,164.23 927.83,162.27 929.25,160.31 930.67,158.35 932.08,156.40 933.50,154.44 934.92,152.48 936.33,150.52 937.75,148.56 939.17,146.60 940.58,144.65 942.00,142.69" fill="none" stroke="#c84632" stroke-width="4" stroke-linecap="round" stroke-linejoin="round"/>
<text x="517.0" y="662" class="label" text-anchor="middle" >&#23448;&#26041;&#20998;&#25968; Score</text>
<text x="34" y="363.0" class="label" text-anchor="middle" transform="rotate(-90 34 363.0)">G(&#20998;&#25968;) = &#21333;&#26354;TR - &#23450;&#25968;</text>
<circle cx="92.00" cy="573.52" r="5" fill="#c84632"/>
<text x="92.0" y="557.5208333333334" class="rank" text-anchor="middle" >未稳定</text>
<circle cx="375.33" cy="475.60" r="5" fill="#c84632"/>
<text x="375.3333333333333" y="459.60416666666663" class="rank" text-anchor="middle" >入门通过</text>
<circle cx="517.00" cy="426.65" r="5" fill="#c84632"/>
<circle cx="658.67" cy="377.69" r="5" fill="#c84632"/>
<text x="658.6666666666666" y="361.6875" class="rank" text-anchor="middle" >基本能打</text>
<circle cx="800.33" cy="279.77" r="5" fill="#c84632"/>
<text x="800.3333333333334" y="263.7708333333333" class="rank" text-anchor="middle" >定数基准</text>
<circle cx="857.00" cy="240.60" r="5" fill="#c84632"/>
<circle cx="885.33" cy="211.23" r="5" fill="#c84632"/>
<circle cx="913.67" cy="181.85" r="5" fill="#c84632"/>
<text x="913.6666666666666" y="165.85416666666663" class="rank" text-anchor="middle" >高完成度</text>
<circle cx="927.83" cy="162.27" r="5" fill="#c84632"/>
<circle cx="942.00" cy="142.69" r="5" fill="#c84632"/>
<text x="942.0" y="126.68749999999994" class="rank" text-anchor="middle" >吃满</text>
<rect x="990" y="155" width="325" height="240" rx="8" fill="#fff8ea" stroke="#d6bd8e"/>
<text x="1008" y="187" class="label" text-anchor="start" >&#20363;&#65306;&#23450;&#25968; 10.5</text>
<text x="1008" y="219" class="mono" text-anchor="start" > 80w  ->  8.50</text>
<text x="1008" y="243" class="mono" text-anchor="start" > 90w  ->  9.50</text>
<text x="1008" y="267" class="mono" text-anchor="start" > 95w  ->  10.50</text>
<text x="1008" y="291" class="mono" text-anchor="start" > 98w  ->  11.20</text>
<text x="1008" y="315" class="mono" text-anchor="start" > 99w  ->  11.50</text>
<text x="1008" y="339" class="mono" text-anchor="start" > 99w  ->  11.70</text>
<text x="1008" y="363" class="mono" text-anchor="start" >100w  ->  11.90</text>
<text x="92" y="684" class="label" text-anchor="start" >0 - 100&#19975; &#24635;&#35272;&#65306;&#20302;&#20998;&#27573;&#19981;&#36807;&#24230;&#32454;&#20998;&#65292;&#39640;&#20998;&#27573;&#26356;&#32454;</text>
<line x1="92.00" y1="814.79" x2="1302.00" y2="814.79" stroke="#ded7cc" stroke-width="1" />
<text x="78" y="819.7916666666666" class="tick" text-anchor="end" >-3</text>
<line x1="92.00" y1="793.96" x2="1302.00" y2="793.96" stroke="#ded7cc" stroke-width="1" />
<text x="78" y="798.9583333333334" class="tick" text-anchor="end" >-2</text>
<line x1="92.00" y1="773.12" x2="1302.00" y2="773.12" stroke="#ded7cc" stroke-width="1" />
<text x="78" y="778.125" class="tick" text-anchor="end" >-1</text>
<line x1="92.00" y1="752.29" x2="1302.00" y2="752.29" stroke="#ded7cc" stroke-width="1" />
<text x="78" y="757.2916666666666" class="tick" text-anchor="end" >+0</text>
<line x1="92.00" y1="723.12" x2="1302.00" y2="723.12" stroke="#ded7cc" stroke-width="1" />
<text x="78" y="728.125" class="tick" text-anchor="end" >+1.4</text>
<line x1="92.00" y1="720.00" x2="92.00" y2="820.00" stroke="#ded7cc" stroke-width="1" />
<text x="92.0" y="844" class="tick" text-anchor="middle" >0</text>
<line x1="697.00" y1="720.00" x2="697.00" y2="820.00" stroke="#ded7cc" stroke-width="1" />
<text x="697.0" y="844" class="tick" text-anchor="middle" >50w</text>
<line x1="939.00" y1="720.00" x2="939.00" y2="820.00" stroke="#ded7cc" stroke-width="1" />
<text x="939.0" y="844" class="tick" text-anchor="middle" >70w</text>
<line x1="1060.00" y1="720.00" x2="1060.00" y2="820.00" stroke="#ded7cc" stroke-width="1" />
<text x="1060.0" y="844" class="tick" text-anchor="middle" >80w</text>
<line x1="1181.00" y1="720.00" x2="1181.00" y2="820.00" stroke="#ded7cc" stroke-width="1" />
<text x="1181.0" y="844" class="tick" text-anchor="middle" >90w</text>
<line x1="1241.50" y1="720.00" x2="1241.50" y2="820.00" stroke="#ded7cc" stroke-width="1" />
<text x="1241.5" y="844" class="tick" text-anchor="middle" >95w</text>
<line x1="1302.00" y1="720.00" x2="1302.00" y2="820.00" stroke="#ded7cc" stroke-width="1" />
<text x="1302.0" y="844" class="tick" text-anchor="middle" >100w</text>
<line x1="92.00" y1="820.00" x2="1302.00" y2="820.00" stroke="#302b27" stroke-width="2" />
<line x1="92.00" y1="720.00" x2="92.00" y2="820.00" stroke="#302b27" stroke-width="2" />
<polyline points="92.00,814.79 94.42,814.79 96.84,814.79 99.26,814.79 101.68,814.79 104.10,814.79 106.52,814.79 108.94,814.79 111.36,814.79 113.78,814.79 116.20,814.79 118.62,814.79 121.04,814.79 123.46,814.79 125.88,814.79 128.30,814.79 130.72,814.79 133.14,814.79 135.56,814.79 137.98,814.79 140.40,814.79 142.82,814.79 145.24,814.79 147.66,814.79 150.08,814.79 152.50,814.79 154.92,814.79 157.34,814.79 159.76,814.79 162.18,814.79 164.60,814.79 167.02,814.79 169.44,814.79 171.86,814.79 174.28,814.79 176.70,814.79 179.12,814.79 181.54,814.79 183.96,814.79 186.38,814.79 188.80,814.79 191.22,814.79 193.64,814.79 196.06,814.79 198.48,814.79 200.90,814.79 203.32,814.79 205.74,814.79 208.16,814.79 210.58,814.79 213.00,814.79 215.42,814.79 217.84,814.79 220.26,814.79 222.68,814.79 225.10,814.79 227.52,814.79 229.94,814.79 232.36,814.79 234.78,814.79 237.20,814.79 239.62,814.79 242.04,814.79 244.46,814.79 246.88,814.79 249.30,814.79 251.72,814.79 254.14,814.79 256.56,814.79 258.98,814.79 261.40,814.79 263.82,814.79 266.24,814.79 268.66,814.79 271.08,814.79 273.50,814.79 275.92,814.79 278.34,814.79 280.76,814.79 283.18,814.79 285.60,814.79 288.02,814.79 290.44,814.79 292.86,814.79 295.28,814.79 297.70,814.79 300.12,814.79 302.54,814.79 304.96,814.79 307.38,814.79 309.80,814.79 312.22,814.79 314.64,814.79 317.06,814.79 319.48,814.79 321.90,814.79 324.32,814.79 326.74,814.79 329.16,814.79 331.58,814.79 334.00,814.79 336.42,814.79 338.84,814.79 341.26,814.79 343.68,814.79 346.10,814.79 348.52,814.79 350.94,814.79 353.36,814.79 355.78,814.79 358.20,814.79 360.62,814.79 363.04,814.79 365.46,814.79 367.88,814.79 370.30,814.79 372.72,814.79 375.14,814.79 377.56,814.79 379.98,814.79 382.40,814.79 384.82,814.79 387.24,814.79 389.66,814.79 392.08,814.79 394.50,814.79 396.92,814.79 399.34,814.79 401.76,814.79 404.18,814.79 406.60,814.79 409.02,814.79 411.44,814.79 413.86,814.79 416.28,814.79 418.70,814.79 421.12,814.79 423.54,814.79 425.96,814.79 428.38,814.79 430.80,814.79 433.22,814.79 435.64,814.79 438.06,814.79 440.48,814.79 442.90,814.79 445.32,814.79 447.74,814.79 450.16,814.79 452.58,814.79 455.00,814.79 457.42,814.79 459.84,814.79 462.26,814.79 464.68,814.79 467.10,814.79 469.52,814.79 471.94,814.79 474.36,814.79 476.78,814.79 479.20,814.79 481.62,814.79 484.04,814.79 486.46,814.79 488.88,814.79 491.30,814.79 493.72,814.79 496.14,814.79 498.56,814.79 500.98,814.79 503.40,814.79 505.82,814.79 508.24,814.79 510.66,814.79 513.08,814.79 515.50,814.79 517.92,814.79 520.34,814.79 522.76,814.79 525.18,814.79 527.60,814.79 530.02,814.79 532.44,814.79 534.86,814.79 537.28,814.79 539.70,814.79 542.12,814.79 544.54,814.79 546.96,814.79 549.38,814.79 551.80,814.79 554.22,814.79 556.64,814.79 559.06,814.79 561.48,814.79 563.90,814.79 566.32,814.79 568.74,814.79 571.16,814.79 573.58,814.79 576.00,814.79 578.42,814.79 580.84,814.79 583.26,814.79 585.68,814.79 588.10,814.79 590.52,814.79 592.94,814.79 595.36,814.79 597.78,814.79 600.20,814.79 602.62,814.79 605.04,814.79 607.46,814.79 609.88,814.79 612.30,814.79 614.72,814.79 617.14,814.79 619.56,814.79 621.98,814.79 624.40,814.79 626.82,814.79 629.24,814.79 631.66,814.79 634.08,814.79 636.50,814.79 638.92,814.79 641.34,814.79 643.76,814.79 646.18,814.79 648.60,814.79 651.02,814.79 653.44,814.79 655.86,814.79 658.28,814.79 660.70,814.79 663.12,814.79 665.54,814.79 667.96,814.79 670.38,814.79 672.80,814.79 675.22,814.79 677.64,814.79 680.06,814.79 682.48,814.79 684.90,814.79 687.32,814.79 689.74,814.79 692.16,814.79 694.58,814.79 697.00,814.79 699.42,814.79 701.84,814.79 704.26,814.79 706.68,814.79 709.10,814.79 711.52,814.79 713.94,814.79 716.36,814.79 718.78,814.79 721.20,814.79 723.62,814.79 726.04,814.79 728.46,814.79 730.88,814.79 733.30,814.79 735.72,814.79 738.14,814.79 740.56,814.79 742.98,814.79 745.40,814.79 747.82,814.79 750.24,814.79 752.66,814.79 755.08,814.79 757.50,814.79 759.92,814.79 762.34,814.79 764.76,814.79 767.18,814.79 769.60,814.79 772.02,814.79 774.44,814.79 776.86,814.79 779.28,814.79 781.70,814.79 784.12,814.79 786.54,814.79 788.96,814.79 791.38,814.79 793.80,814.79 796.22,814.79 798.64,814.79 801.06,814.79 803.48,814.79 805.90,814.79 808.32,814.79 810.74,814.79 813.16,814.79 815.58,814.79 818.00,814.79 820.42,814.79 822.84,814.79 825.26,814.79 827.68,814.79 830.10,814.79 832.52,814.79 834.94,814.79 837.36,814.79 839.78,814.79 842.20,814.79 844.62,814.79 847.04,814.79 849.46,814.79 851.88,814.79 854.30,814.79 856.72,814.79 859.14,814.79 861.56,814.79 863.98,814.79 866.40,814.79 868.82,814.79 871.24,814.79 873.66,814.79 876.08,814.79 878.50,814.79 880.92,814.79 883.34,814.79 885.76,814.79 888.18,814.79 890.60,814.79 893.02,814.79 895.44,814.79 897.86,814.79 900.28,814.79 902.70,814.79 905.12,814.79 907.54,814.79 909.96,814.79 912.38,814.79 914.80,814.79 917.22,814.79 919.64,814.79 922.06,814.79 924.48,814.79 926.90,814.79 929.32,814.79 931.74,814.79 934.16,814.79 936.58,814.79 939.00,814.79 941.42,814.38 943.84,813.96 946.26,813.54 948.68,813.12 951.10,812.71 953.52,812.29 955.94,811.88 958.36,811.46 960.78,811.04 963.20,810.62 965.62,810.21 968.04,809.79 970.46,809.38 972.88,808.96 975.30,808.54 977.72,808.12 980.14,807.71 982.56,807.29 984.98,806.88 987.40,806.46 989.82,806.04 992.24,805.62 994.66,805.21 997.08,804.79 999.50,804.38 1001.92,803.96 1004.34,803.54 1006.76,803.12 1009.18,802.71 1011.60,802.29 1014.02,801.88 1016.44,801.46 1018.86,801.04 1021.28,800.62 1023.70,800.21 1026.12,799.79 1028.54,799.38 1030.96,798.96 1033.38,798.54 1035.80,798.12 1038.22,797.71 1040.64,797.29 1043.06,796.88 1045.48,796.46 1047.90,796.04 1050.32,795.62 1052.74,795.21 1055.16,794.79 1057.58,794.38 1060.00,793.96 1062.42,793.54 1064.84,793.12 1067.26,792.71 1069.68,792.29 1072.10,791.88 1074.52,791.46 1076.94,791.04 1079.36,790.62 1081.78,790.21 1084.20,789.79 1086.62,789.38 1089.04,788.96 1091.46,788.54 1093.88,788.12 1096.30,787.71 1098.72,787.29 1101.14,786.88 1103.56,786.46 1105.98,786.04 1108.40,785.62 1110.82,785.21 1113.24,784.79 1115.66,784.38 1118.08,783.96 1120.50,783.54 1122.92,783.12 1125.34,782.71 1127.76,782.29 1130.18,781.88 1132.60,781.46 1135.02,781.04 1137.44,780.62 1139.86,780.21 1142.28,779.79 1144.70,779.38 1147.12,778.96 1149.54,778.54 1151.96,778.12 1154.38,777.71 1156.80,777.29 1159.22,776.88 1161.64,776.46 1164.06,776.04 1166.48,775.62 1168.90,775.21 1171.32,774.79 1173.74,774.38 1176.16,773.96 1178.58,773.54 1181.00,773.12 1183.42,772.29 1185.84,771.46 1188.26,770.62 1190.68,769.79 1193.10,768.96 1195.52,768.12 1197.94,767.29 1200.36,766.46 1202.78,765.62 1205.20,764.79 1207.62,763.96 1210.04,763.12 1212.46,762.29 1214.88,761.46 1217.30,760.62 1219.72,759.79 1222.14,758.96 1224.56,758.12 1226.98,757.29 1229.40,756.46 1231.82,755.62 1234.24,754.79 1236.66,753.96 1239.08,753.12 1241.50,752.29 1243.92,751.46 1246.34,750.62 1248.76,749.79 1251.18,748.96 1253.60,748.12 1256.02,747.29 1258.44,746.46 1260.86,745.62 1263.28,744.79 1265.70,743.96 1268.12,742.71 1270.54,741.46 1272.96,740.21 1275.38,738.96 1277.80,737.71 1280.22,736.46 1282.64,735.21 1285.06,733.96 1287.48,732.71 1289.90,731.46 1292.32,729.79 1294.74,728.12 1295.95,727.29 1297.16,726.46 1299.58,724.79 1302.00,723.12" fill="none" stroke="#2d719d" stroke-width="3" stroke-linecap="round" stroke-linejoin="round"/>
<rect x="939.00" y="720.00" width="363.00" height="100.00" fill="none" stroke="#c84632" stroke-width="2" stroke-dasharray="7 5"/>
<text x="92" y="882" class="small" text-anchor="start" >&#35828;&#26126;&#65306;&#36825;&#26159;&#31532;&#19968;&#29256;&#35843;&#21442;&#33609;&#26696;&#12290;100&#19975;&#20197;&#19978;&#25353; +1.4 &#35745;&#65292;&#36830;&#25171;&#23548;&#33268;&#30340;&#36229;&#20998;&#19981;&#32487;&#32493;&#21152; TR&#12290;</text>
</svg>
